<?xml version="1.0" standalone="no"?>
<!DOCTYPE svg PUBLIC "-//W3C//DTD SVG 20010904//EN"
 "http://www.w3.org/TR/2001/REC-SVG-20010904/DTD/svg10.dtd">
<svg version="1.0" xmlns="http://www.w3.org/2000/svg"
 width="700.000000pt" height="700.000000pt" viewBox="0 0 700.000000 700.000000"
 preserveAspectRatio="xMidYMid meet">
<metadata>
Created by potrace 1.11, written by Peter Selinger 2001-2013
</metadata>
<g transform="translate(0.000000,700.000000) scale(0.100000,-0.100000)"
fill="#000000" stroke="none">
<path d="M3287 6990 c-752 -51 -1430 -317 -2006 -787 -136 -111 -373 -348
-484 -484 -431 -529 -693 -1151 -773 -1834 -23 -199 -23 -575 0 -770 95 -795
424 -1492 971 -2054 565 -581 1288 -937 2105 -1038 200 -24 600 -24 800 0 665
82 1268 333 1785 743 141 113 436 408 549 549 348 439 586 949 695 1492 50
251 65 409 65 693 0 284 -15 443 -65 691 -299 1488 -1532 2617 -3039 2783
-172 19 -451 27 -603 16z m523 -1355 c468 -70 873 -275 1211 -614 341 -343
539 -735 615 -1221 22 -144 22 -437 0 -593 -54 -376 -193 -709 -429 -1022 -77
-102 -288 -313 -392 -392 -316 -239 -668 -384 -1055 -434 -134 -17 -431 -14
-565 6 -470 70 -887 279 -1219 611 -319 318 -524 714 -603 1164 -33 187 -37
480 -10 660 69 448 254 838 549 1157 372 401 851 639 1398 693 115 12 372 4
500 -15z"/>
<path d="M2945 5371 c-248 -77 -422 -160 -610 -292 -91 -64 -425 -389 -425
-413 0 -7 12 -41 26 -76 l26 -64 -35 -30 c-34 -30 -36 -37 -62 -176 -15 -80
-28 -161 -29 -181 0 -27 24 -86 97 -231 89 -180 102 -199 166 -261 38 -37 76
-67 85 -67 22 0 21 6 -18 59 -19 26 -44 71 -56 101 l-21 55 88 -86 c48 -47
126 -119 173 -161 l85 -75 105 -22 c128 -27 480 -145 526 -176 19 -13 63 -40
98 -61 l64 -37 6 -96 c4 -53 10 -142 15 -198 l9 -103 210 -223 210 -223 56
-189 c125 -426 195 -603 234 -591 9 3 38 10 64 16 39 8 124 37 136 45 1 1 9
44 17 95 16 98 28 118 151 265 40 47 42 54 49 135 4 47 12 94 18 105 6 11 42
59 80 106 67 82 71 91 87 170 10 49 39 134 69 201 47 107 51 121 45 167 l-6
50 -251 83 -251 83 -87 110 -87 110 -298 53 c-165 29 -304 52 -310 52 -6 0
-32 -27 -57 -60 -26 -33 -52 -60 -59 -60 -25 0 -182 53 -170 57 20 7 15 16
-43 84 -46 53 -65 67 -108 80 l-52 16 -5 61 c-3 34 -11 67 -17 73 -14 14 -21
8 -116 -81 l-48 -45 -54 57 c-30 31 -55 62 -55 70 0 7 24 54 53 103 l52 90
109 53 110 53 66 -66 c63 -62 69 -66 89 -53 22 13 29 33 52 143 7 33 41 119
75 190 51 108 73 143 131 204 68 74 70 75 179 111 l109 36 16 65 16 64 -63 40
c-35 22 -64 42 -64 45 0 3 46 23 103 44 56 20 107 40 113 44 11 8 94 147 94
159 0 4 -36 85 -81 179 l-82 172 -61 -29 c-48 -21 -63 -25 -71 -15 -5 7 -24
30 -42 51 l-32 38 -70 -19 c-39 -10 -76 -21 -82 -25 -8 -5 -8 -39 1 -128 l13
-122 -24 -32 c-13 -18 -48 -67 -77 -110 -30 -43 -58 -75 -62 -70 -4 4 -17 45
-30 89 l-23 82 -76 12 c-116 18 -111 14 -110 73 1 102 13 141 60 198 55 66 73
89 68 88 -2 0 -58 -17 -124 -38z"/>
<path d="M3869 4867 c-19 -23 -39 -49 -46 -57 -8 -11 -9 -28 -2 -61 9 -43 13
-47 47 -53 20 -3 49 -6 65 -6 24 0 27 4 27 33 0 28 -42 172 -53 183 -2 2 -19
-16 -38 -39z"/>
<path d="M5260 4183 c-13 -32 -63 -119 -112 -194 l-88 -136 19 -64 c11 -35 25
-90 32 -121 10 -49 18 -61 53 -86 23 -17 75 -60 116 -96 70 -62 77 -66 124
-66 l49 0 -6 133 c-8 152 -26 271 -62 410 -25 96 -80 254 -95 270 -4 5 -18
-18 -30 -50z"/>
<path d="M3093 3667 c-17 -7 -34 -15 -38 -18 -13 -14 136 -80 216 -95 76 -14
87 -14 148 2 36 10 68 19 69 20 2 1 1 16 -3 33 l-7 31 -108 0 c-86 0 -118 4
-155 20 -52 22 -76 24 -122 7z"/>
</g>
</svg>
