<?xml version="1.0" encoding="utf-8"?>
<!-- Generator: Adobe Illustrator 21.1.0, SVG Export Plug-In . SVG Version: 6.00 Build 0)  -->
<svg version="1.1" id="Layer_1" xmlns="http://www.w3.org/2000/svg" xmlns:xlink="http://www.w3.org/1999/xlink" x="0px" y="0px"
	 viewBox="0 0 316.5 228.4" style="enable-background:new 0 0 316.5 228.4;" xml:space="preserve">
<style type="text/css">
	.st0{fill:#606060;}
</style>
<g>
	<path class="st0" d="M187.3,136.3h-23.4c-4.3,0-7.8,0-11.2-0.9v6.9c0,1.7,1.7,2.6,3.5,2.6h42.4c-0.9-2.6-1.7-6.1-1.7-9.5
		C194.2,136.3,190.7,136.3,187.3,136.3z M247.9,188.2c3.5,3.5,9.5,3.5,13.8,0c3.5-4.3,3.5-10.4,0-13.8c-4.3-3.5-10.4-3.5-13.8,0
		S244.4,183.9,247.9,188.2z M109.4,88.7H63.5V73.1h45.9c0-0.9,0.9-2.6,0.9-3.5H24.6V27.2h13V16h22.5l7.8,11.2c39.8,0,79.6,0,119.4,0
		c15.6,0,28.6,6.1,39.8,17.3c6.1-0.9,8.7-13,8.7-18.2c0-13.8,20.8-13.8,20.8-0.9c-0.9,14.7-3.5,30.3-18.2,36.3
		c2.6,8.7,4.3,18.2,3.5,26.8c19,0,37.2,13,42.4,32l11.2,38.9c6.1,23.4-7.8,48.5-31.2,54.5c-23.4,6.9-48.5-6.9-54.5-30.3l-6.9-24.2
		h-51.1c-7.8,0-14.7-6.1-14.7-14.7v-15.6C122.4,121.6,112,106,109.4,88.7z M155.3,60.1l39.8,0c5.2,0,5.2-8.7,0-8.7h-39.8
		C150.1,51.5,150.1,60.1,155.3,60.1z M155.3,86.1h39.8c5.2,0,5.2-8.7,0-8.7h-39.8C150.1,77.4,150.1,86.1,155.3,86.1z M155.3,112
		h39.8c5.2,0,5.2-7.8,0-7.8h-39.8C150.1,104.3,150.1,112,155.3,112z"/>
</g>
</svg>
